<svg width="210mm" height="297mm" version="1.1" viewBox="0 0 210 297" xmlns="http://www.w3.org/2000/svg">
 <g fill="none" stroke="#000">
  <ellipse cx="39.688" cy="39.688" rx="13.097" ry="13.097" stroke-width=".26456"/>
  <path d="m39.688 33.205c-3.5815 0-6.4823 2.9763-6.4823 6.6473 0 2.9376 1.8572 5.4287 4.4323 6.3067 0.32412 0.0626 0.44296-0.14291 0.44296-0.31963 0-0.15789-0.0056-0.5761-0.0081-1.13-1.8032 0.40105-2.1835-0.89185-2.1835-0.89185-0.29494-0.76722-0.72116-0.97218-0.72116-0.97218-0.58719-0.41214 0.04535-0.40382 0.04535-0.40382 0.65094 0.04652 0.99288 0.68468 0.99288 0.68468 0.57801 1.0165 1.5174 0.7229 1.888 0.55284 0.05834-0.42986 0.22526-0.7229 0.41055-0.88908-1.4396-0.16617-2.9527-0.73786-2.9527-3.2849 0-0.72567 0.25119-1.3184 0.66714-1.7837-0.07294-0.16785-0.2917-0.84366 0.05672-1.7593 0 0 0.5429-0.17838 1.7826 0.68135 0.51859-0.14789 1.0696-0.22103 1.6206-0.22435 0.551 0.0032 1.102 0.07642 1.6206 0.22435 1.2316-0.85972 1.7745-0.68135 1.7745-0.68135 0.34843 0.91567 0.12964 1.5915 0.06482 1.7593 0.41325 0.46531 0.66444 1.058 0.66444 1.7837 0 2.5537-1.5152 3.1159-2.9576 3.2794 0.22688 0.19942 0.43756 0.60712 0.43756 1.2298 0 0.88964-0.0081 1.6042-0.0081 1.8203 0 0.17448 0.11344 0.38222 0.44566 0.31575 2.5935-0.87191 4.4491-3.3647 4.4491-6.2978 0-3.671-2.9025-6.6473-6.4823-6.6473" stroke-width=".26448"/>
 </g>
</svg>
