<?xml version="1.0" encoding="utf-8"?>
<svg role="img" xmlns="http://www.w3.org/2000/svg" xmlns:bx="https://boxy-svg.com">
  <defs>
    <bx:guide x="12.814" y="12.094" angle="90"/>
    <bx:guide x="12.777" y="12.094" angle="0"/>
  </defs>
  <title>GitHub icon</title>
  <path d="M 12.766 1.355 C 6.636 1.355 1.669 6.323 1.669 12.452 C 1.669 17.356 4.848 21.514 9.257 22.981 C 9.813 23.085 10.015 22.741 10.015 22.446 C 10.015 22.183 10.006 21.485 10.003 20.56 C 6.915 21.231 6.264 19.072 6.264 19.072 C 5.759 17.79 5.029 17.448 5.029 17.448 C 4.025 16.759 5.107 16.775 5.107 16.775 C 6.221 16.851 6.807 17.917 6.807 17.917 C 7.796 19.614 9.403 19.124 10.039 18.84 C 10.139 18.123 10.425 17.633 10.742 17.356 C 8.277 17.079 5.686 16.125 5.686 11.871 C 5.686 10.66 6.117 9.671 6.829 8.894 C 6.705 8.614 6.329 7.486 6.926 5.957 C 6.926 5.957 7.856 5.659 9.978 7.095 C 10.865 6.848 11.809 6.725 12.753 6.72 C 13.695 6.725 14.638 6.848 15.525 7.095 C 17.634 5.659 18.564 5.957 18.564 5.957 C 19.16 7.486 18.786 8.614 18.675 8.894 C 19.382 9.671 19.811 10.66 19.811 11.871 C 19.811 16.135 17.218 17.074 14.75 17.346 C 15.138 17.68 15.499 18.361 15.499 19.4 C 15.499 20.885 15.484 22.077 15.484 22.438 C 15.484 22.729 15.679 23.076 16.248 22.966 C 20.686 21.511 23.864 17.349 23.864 12.452 C 23.864 6.323 18.895 1.355 12.766 1.355" style="stroke: rgb(0, 0, 0); vector-effect: non-scaling-stroke; fill: none;"/>
  <circle style="fill: none; stroke: rgb(0, 0, 0); vector-effect: non-scaling-stroke;" cx="12.816" cy="12.059" r="16.387"/>
</svg>