<svg width="210mm" height="297mm" version="1.1" viewBox="0 0 210 297" xmlns="http://www.w3.org/2000/svg">
 <g fill="none" stroke="#000">
  <ellipse cx="39.688" cy="39.688" rx="13.097" ry="13.097" stroke-width=".26458"/>
  <path d="m40.488 33.116a0.75736 0.75736 0 0 0-0.52971 0.24143l-2.9798 3.1904-2.1244 2.2743a2.9027 2.9027 0 0 0-0.66641 1.1597 2.949 2.949 0 0 0-0.06888 0.28277 3.0465 3.0465 0 0 0 0.03417 1.302 3.2135 3.2135 0 0 0 0.19237 0.56058 3.2731 3.2731 0 0 0 0.70058 1.0021l2.3575 2.3112 0.0215 0.02094c1.2391 1.1934 3.2257 1.1757 4.4444-0.04081l1.3207-1.3185c0.29765-0.29765 0.29765-0.77941 0.0017-1.0776a0.75956 0.75956 0 0 0-1.0754-0.0017l-1.3207 1.3185a1.6652 1.6652 0 0 1-2.3178 0.02094l-0.01105-0.01042-2.357-2.3112c-0.35939-0.35276-0.53578-0.8097-0.52255-1.2474a1.4772 1.4772 0 0 1 0.03639-0.28828 1.4028 1.4028 0 0 1 0.3412-0.64161l2.1238-2.2748c0.58318-0.62507 1.7661-0.70004 2.4419-0.15323l1.9298 1.5605c0.32687 0.26458 0.80532 0.21332 1.0693-0.1141a0.76287 0.76287 0 0 0-0.1141-1.071l-1.9292-1.5605c-0.44097-0.35663-0.97343-0.57601-1.5291-0.66255l1.1107-1.1895a0.76287 0.76287 0 0 0-0.57987-1.2821zm-1.5798 7.0637a0.76067 0.76067 0 0 0-0.76067 0.76177 0.76067 0.76067 0 0 0 0.76067 0.76177h5.6074a0.76067 0.76067 0 0 0 0.76067-0.76177 0.76067 0.76067 0 0 0-0.76067-0.76177z" stroke-width=".26458"/>
 </g>
</svg>
